# xmcd
#
# Track frame offsets:
# 150
# 15094
# 29106
# 46105
# 60660
# 75627
# 89886
# 104958
# 119399
# 135134
# 149434
# 161841
# 177725
# 196293
# 213739
# 230134
# 244625
# 259314
# 272984
# 286844
#
# Disc length: 4030 seconds
#
#
# Revision: 2
# Processed by: cddbd v1.5.1PL0 Copyright (c) Steve Scherf et al.
# Submitted via: FreeRIP 2.91 
#
DISCID=350fbc14
DTITLE=João Luiz Corrêa - Camperismo IV - CD II
DYEAR=2003
DGENRE=Country
TTITLE0=Na Neguinha
TTITLE1=Viciado em Vanerão
TTITLE2=No Rincão do Risca-Risca
TTITLE3=Sindicato dos Maridos sem Amante
TTITLE4=Alma de Taura
TTITLE5=Surungo de Fronteira
TTITLE6=Casinha Branca
TTITLE7=Pealando de todo o Laço
TTITLE8=Chinoca Teimosa
TTITLE9=Xixando
TTITLE10=Mexerico Campeiro
TTITLE11=Lá nas Gurias
TTITLE12=Viajando no Chamamé
TTITLE13=Surpresa da Vida
TTITLE14=Venera do Gauchão
TTITLE15=Namoro de Galpão
TTITLE16=Rei da Festança
TTITLE17=Noite Feliz
TTITLE18=Amor Meu
TTITLE19=Fandangueando no Rincão
EXTD=
EXTT0=
EXTT1=
EXTT2=
EXTT3=
EXTT4=
EXTT5=
EXTT6=
EXTT7=
EXTT8=
EXTT9=
EXTT10=
EXTT11=
EXTT12=
EXTT13=
EXTT14=
EXTT15=
EXTT16=
EXTT17=
EXTT18=
EXTT19=
PLAYORDER=
